<svg width="228" height="66" viewBox="0 0 228 66" fill="none" xmlns="http://www.w3.org/2000/svg">
<path d="M62.408 32.424C62.408 29.3733 63.0387 26.66 64.3 24.284C65.5907 21.8787 67.4093 20.016 69.756 18.696C72.1027 17.3467 74.8013 16.672 77.852 16.672C81.724 16.672 84.98 17.7133 87.62 19.796C90.26 21.8493 91.9613 24.6507 92.724 28.2H83.44C82.8827 27.0267 82.1053 26.132 81.108 25.516C80.14 24.9 79.0107 24.592 77.72 24.592C75.7253 24.592 74.1267 25.3107 72.924 26.748C71.7507 28.156 71.164 30.048 71.164 32.424C71.164 34.8293 71.7507 36.7507 72.924 38.188C74.1267 39.596 75.7253 40.3 77.72 40.3C79.0107 40.3 80.14 39.992 81.108 39.376C82.1053 38.76 82.8827 37.8653 83.44 36.692H92.724C91.9613 40.2413 90.26 43.0573 87.62 45.14C84.98 47.1933 81.724 48.22 77.852 48.22C74.8013 48.22 72.1027 47.56 69.756 46.24C67.4093 44.8907 65.5907 43.028 64.3 40.652C63.0387 38.2467 62.408 35.504 62.408 32.424ZM109.216 16.98V34.976C109.216 36.648 109.597 37.9387 110.36 38.848C111.152 39.7573 112.34 40.212 113.924 40.212C115.508 40.212 116.696 39.7573 117.488 38.848C118.309 37.9093 118.72 36.6187 118.72 34.976V16.98H127.344V34.976C127.344 37.8213 126.742 40.256 125.54 42.28C124.337 44.2747 122.694 45.7853 120.612 46.812C118.558 47.8093 116.27 48.308 113.748 48.308C111.225 48.308 108.966 47.8093 106.972 46.812C105.006 45.7853 103.452 44.2747 102.308 42.28C101.193 40.2853 100.636 37.8507 100.636 34.976V16.98H109.216ZM155.852 32.072C157.671 32.4827 159.108 33.392 160.164 34.8C161.249 36.1787 161.792 37.7627 161.792 39.552C161.792 42.192 160.883 44.26 159.064 45.756C157.245 47.252 154.693 48 151.408 48H136.052V16.98H150.924C154.092 16.98 156.571 17.684 158.36 19.092C160.179 20.5 161.088 22.48 161.088 25.032C161.088 26.8507 160.604 28.376 159.636 29.608C158.697 30.8107 157.436 31.632 155.852 32.072ZM144.676 29.3H149.032C151.203 29.3 152.288 28.4053 152.288 26.616C152.288 24.768 151.203 23.844 149.032 23.844H144.676V29.3ZM149.692 41.048C151.863 41.048 152.948 40.1387 152.948 38.32C152.948 37.3813 152.655 36.6627 152.068 36.164C151.511 35.6653 150.704 35.416 149.648 35.416H144.676V41.048H149.692ZM178.155 23.888V28.948H188.055V35.504H178.155V41.092H189.375V48H169.531V16.98H189.375V23.888H178.155ZM217.001 48L210.973 39.244L205.825 48H196.013L206.089 32.116L195.661 16.98H205.825L211.677 25.516L216.693 16.98H226.505L216.561 32.6L227.165 48H217.001Z" fill="white"/>
<path d="M47.25 42.0001V24.0001C47.2492 23.2109 47.0409 22.4359 46.646 21.7527C46.251 21.0695 45.6834 20.5021 45 20.1076L29.25 11.1076C28.5659 10.7126 27.7899 10.5047 27 10.5047C26.2101 10.5047 25.4341 10.7126 24.75 11.1076L9 20.1076C8.31659 20.5021 7.74896 21.0695 7.35404 21.7527C6.95912 22.4359 6.75081 23.2109 6.75 24.0001V42.0001C6.75081 42.7892 6.95912 43.5642 7.35404 44.2474C7.74896 44.9306 8.31659 45.498 9 45.8926L24.75 54.8926C25.4341 55.2875 26.2101 55.4954 27 55.4954C27.7899 55.4954 28.5659 55.2875 29.25 54.8926L45 45.8926C45.6834 45.498 46.251 44.9306 46.646 44.2474C47.0409 43.5642 47.2492 42.7892 47.25 42.0001Z" stroke="white" stroke-width="4.5" stroke-linecap="round" stroke-linejoin="round"/>
<path d="M7.35754 21.66L27 33.0225L46.6425 21.66" stroke="white" stroke-width="4.5" stroke-linecap="round" stroke-linejoin="round"/>
<path d="M27 55.68V33" stroke="white" stroke-width="4.5" stroke-linecap="round" stroke-linejoin="round"/>
</svg>
